<mxfile host="app.diagrams.net" modified="2023-01-11T09:16:28.908Z" agent="5.0 (Windows NT 10.0; Win64; x64) AppleWebKit/537.36 (KHTML, like Gecko) Chrome/107.0.0.0 Safari/537.36" version="20.7.4" etag="9r0UI2CIiNE6RUxSakgK" type="github">
  <diagram id="CSRdUuKVM2NA2yj7Q0SR" name="第 1 页">
    <mxGraphModel dx="1269" dy="641" grid="1" gridSize="10" guides="1" tooltips="1" connect="1" arrows="1" fold="1" page="1" pageScale="1" pageWidth="827" pageHeight="1169" math="0" shadow="0">
      <root>
        <mxCell id="0" />
        <mxCell id="1" parent="0" />
        <mxCell id="lGAfCd_u1j44-5hHvDru-1" value="" style="rounded=0;whiteSpace=wrap;html=1;strokeColor=#003366;" vertex="1" parent="1">
          <mxGeometry x="460" y="290" width="200" height="90" as="geometry" />
        </mxCell>
        <mxCell id="lGAfCd_u1j44-5hHvDru-12" value="" style="group" vertex="1" connectable="0" parent="1">
          <mxGeometry x="470" y="300" width="70" height="30" as="geometry" />
        </mxCell>
        <mxCell id="lGAfCd_u1j44-5hHvDru-13" value="" style="rounded=0;whiteSpace=wrap;html=1;strokeColor=#3399FF;" vertex="1" parent="lGAfCd_u1j44-5hHvDru-12">
          <mxGeometry width="70" height="30" as="geometry" />
        </mxCell>
        <mxCell id="lGAfCd_u1j44-5hHvDru-14" value="&lt;font style=&quot;font-size: 14px;&quot;&gt;extent&lt;br&gt;&lt;/font&gt;" style="text;html=1;strokeColor=none;fillColor=none;align=center;verticalAlign=middle;whiteSpace=wrap;rounded=0;" vertex="1" parent="lGAfCd_u1j44-5hHvDru-12">
          <mxGeometry x="5" width="60" height="30" as="geometry" />
        </mxCell>
        <mxCell id="lGAfCd_u1j44-5hHvDru-15" value="segment" style="text;html=1;strokeColor=none;fillColor=none;align=center;verticalAlign=middle;whiteSpace=wrap;rounded=0;fontSize=14;" vertex="1" parent="1">
          <mxGeometry x="460" y="260" width="70" height="30" as="geometry" />
        </mxCell>
        <mxCell id="lGAfCd_u1j44-5hHvDru-16" value="" style="rounded=0;whiteSpace=wrap;html=1;strokeColor=#003366;" vertex="1" parent="1">
          <mxGeometry x="490" y="470" width="220" height="220" as="geometry" />
        </mxCell>
        <mxCell id="lGAfCd_u1j44-5hHvDru-173" value="" style="rounded=0;whiteSpace=wrap;html=1;strokeColor=#003366;" vertex="1" parent="1">
          <mxGeometry x="320" y="430" width="130" height="140" as="geometry" />
        </mxCell>
        <mxCell id="lGAfCd_u1j44-5hHvDru-174" value="" style="rounded=0;whiteSpace=wrap;html=1;labelBorderColor=#0066CC;strokeColor=#3399FF;fontSize=14;fontColor=#000000;" vertex="1" parent="1">
          <mxGeometry x="330" y="439" width="103" height="20" as="geometry" />
        </mxCell>
        <mxCell id="lGAfCd_u1j44-5hHvDru-108" value="" style="rounded=0;whiteSpace=wrap;html=1;strokeColor=#003366;container=0;fontColor=#33FF33;labelBorderColor=#66FF66;labelBackgroundColor=#99FF99;" vertex="1" parent="1">
          <mxGeometry x="502.5" y="482.5" width="20" height="20" as="geometry" />
        </mxCell>
        <mxCell id="lGAfCd_u1j44-5hHvDru-109" value="" style="rounded=0;whiteSpace=wrap;html=1;strokeColor=#003366;container=0;fontColor=#33FF33;" vertex="1" parent="1">
          <mxGeometry x="527.5" y="482.5" width="20" height="20" as="geometry" />
        </mxCell>
        <mxCell id="lGAfCd_u1j44-5hHvDru-110" value="" style="rounded=0;whiteSpace=wrap;html=1;strokeColor=#003366;container=0;fontColor=#33FF33;" vertex="1" parent="1">
          <mxGeometry x="552.5" y="482.5" width="20" height="20" as="geometry" />
        </mxCell>
        <mxCell id="lGAfCd_u1j44-5hHvDru-111" value="" style="rounded=0;whiteSpace=wrap;html=1;strokeColor=#003366;container=0;fontColor=#33FF33;" vertex="1" parent="1">
          <mxGeometry x="577.5" y="482.5" width="20" height="20" as="geometry" />
        </mxCell>
        <mxCell id="lGAfCd_u1j44-5hHvDru-112" value="" style="rounded=0;whiteSpace=wrap;html=1;strokeColor=#003366;fontStyle=1;container=0;fontColor=#33FF33;" vertex="1" parent="1">
          <mxGeometry x="602.5" y="482.5" width="20" height="20" as="geometry" />
        </mxCell>
        <mxCell id="lGAfCd_u1j44-5hHvDru-113" value="" style="rounded=0;whiteSpace=wrap;html=1;strokeColor=#003366;container=0;fontColor=#33FF33;" vertex="1" parent="1">
          <mxGeometry x="627.5" y="482.5" width="20" height="20" as="geometry" />
        </mxCell>
        <mxCell id="lGAfCd_u1j44-5hHvDru-114" value="" style="rounded=0;whiteSpace=wrap;html=1;strokeColor=#003366;container=0;fontColor=#33FF33;" vertex="1" parent="1">
          <mxGeometry x="677.5" y="482.5" width="20" height="20" as="geometry" />
        </mxCell>
        <mxCell id="lGAfCd_u1j44-5hHvDru-115" value="" style="rounded=0;whiteSpace=wrap;html=1;strokeColor=#003366;container=0;fontColor=#33FF33;" vertex="1" parent="1">
          <mxGeometry x="652.5" y="482.5" width="20" height="20" as="geometry" />
        </mxCell>
        <mxCell id="lGAfCd_u1j44-5hHvDru-116" value="" style="rounded=0;whiteSpace=wrap;html=1;strokeColor=#003366;container=0;fontColor=#33FF33;" vertex="1" parent="1">
          <mxGeometry x="502.5" y="507.5" width="20" height="20" as="geometry" />
        </mxCell>
        <mxCell id="lGAfCd_u1j44-5hHvDru-117" value="" style="rounded=0;whiteSpace=wrap;html=1;strokeColor=#003366;container=0;fontColor=#33FF33;" vertex="1" parent="1">
          <mxGeometry x="527.5" y="507.5" width="20" height="20" as="geometry" />
        </mxCell>
        <mxCell id="lGAfCd_u1j44-5hHvDru-118" value="" style="rounded=0;whiteSpace=wrap;html=1;strokeColor=#003366;container=0;fontColor=#33FF33;" vertex="1" parent="1">
          <mxGeometry x="552.5" y="507.5" width="20" height="20" as="geometry" />
        </mxCell>
        <mxCell id="lGAfCd_u1j44-5hHvDru-119" value="" style="rounded=0;whiteSpace=wrap;html=1;strokeColor=#003366;container=0;fontColor=#33FF33;" vertex="1" parent="1">
          <mxGeometry x="577.5" y="507.5" width="20" height="20" as="geometry" />
        </mxCell>
        <mxCell id="lGAfCd_u1j44-5hHvDru-120" value="" style="rounded=0;whiteSpace=wrap;html=1;strokeColor=#003366;fontStyle=1;container=0;fontColor=#33FF33;" vertex="1" parent="1">
          <mxGeometry x="602.5" y="507.5" width="20" height="20" as="geometry" />
        </mxCell>
        <mxCell id="lGAfCd_u1j44-5hHvDru-121" value="" style="rounded=0;whiteSpace=wrap;html=1;strokeColor=#003366;container=0;fontColor=#33FF33;" vertex="1" parent="1">
          <mxGeometry x="627.5" y="507.5" width="20" height="20" as="geometry" />
        </mxCell>
        <mxCell id="lGAfCd_u1j44-5hHvDru-122" value="" style="rounded=0;whiteSpace=wrap;html=1;strokeColor=#003366;container=0;fontColor=#33FF33;" vertex="1" parent="1">
          <mxGeometry x="677.5" y="507.5" width="20" height="20" as="geometry" />
        </mxCell>
        <mxCell id="lGAfCd_u1j44-5hHvDru-123" value="" style="rounded=0;whiteSpace=wrap;html=1;strokeColor=#003366;container=0;fontColor=#33FF33;" vertex="1" parent="1">
          <mxGeometry x="652.5" y="507.5" width="20" height="20" as="geometry" />
        </mxCell>
        <mxCell id="lGAfCd_u1j44-5hHvDru-124" value="" style="rounded=0;whiteSpace=wrap;html=1;strokeColor=#003366;container=0;fontColor=#33FF33;" vertex="1" parent="1">
          <mxGeometry x="502.5" y="532.5" width="20" height="20" as="geometry" />
        </mxCell>
        <mxCell id="lGAfCd_u1j44-5hHvDru-125" value="" style="rounded=0;whiteSpace=wrap;html=1;strokeColor=#003366;container=0;fontColor=#33FF33;" vertex="1" parent="1">
          <mxGeometry x="527.5" y="532.5" width="20" height="20" as="geometry" />
        </mxCell>
        <mxCell id="lGAfCd_u1j44-5hHvDru-126" value="" style="rounded=0;whiteSpace=wrap;html=1;strokeColor=#003366;container=0;fontColor=#33FF33;" vertex="1" parent="1">
          <mxGeometry x="552.5" y="532.5" width="20" height="20" as="geometry" />
        </mxCell>
        <mxCell id="lGAfCd_u1j44-5hHvDru-127" value="" style="rounded=0;whiteSpace=wrap;html=1;strokeColor=#003366;container=0;fontColor=#33FF33;" vertex="1" parent="1">
          <mxGeometry x="577.5" y="532.5" width="20" height="20" as="geometry" />
        </mxCell>
        <mxCell id="lGAfCd_u1j44-5hHvDru-128" value="" style="rounded=0;whiteSpace=wrap;html=1;strokeColor=#003366;fontStyle=1;container=0;fontColor=#33FF33;" vertex="1" parent="1">
          <mxGeometry x="602.5" y="532.5" width="20" height="20" as="geometry" />
        </mxCell>
        <mxCell id="lGAfCd_u1j44-5hHvDru-129" value="" style="rounded=0;whiteSpace=wrap;html=1;strokeColor=#003366;container=0;fontColor=#33FF33;" vertex="1" parent="1">
          <mxGeometry x="627.5" y="532.5" width="20" height="20" as="geometry" />
        </mxCell>
        <mxCell id="lGAfCd_u1j44-5hHvDru-130" value="" style="rounded=0;whiteSpace=wrap;html=1;strokeColor=#003366;container=0;fontColor=#33FF33;" vertex="1" parent="1">
          <mxGeometry x="677.5" y="532.5" width="20" height="20" as="geometry" />
        </mxCell>
        <mxCell id="lGAfCd_u1j44-5hHvDru-131" value="" style="rounded=0;whiteSpace=wrap;html=1;strokeColor=#003366;container=0;fontColor=#33FF33;" vertex="1" parent="1">
          <mxGeometry x="652.5" y="532.5" width="20" height="20" as="geometry" />
        </mxCell>
        <mxCell id="lGAfCd_u1j44-5hHvDru-132" value="" style="rounded=0;whiteSpace=wrap;html=1;strokeColor=#003366;container=0;fontColor=#33FF33;" vertex="1" parent="1">
          <mxGeometry x="502.5" y="557.5" width="20" height="20" as="geometry" />
        </mxCell>
        <mxCell id="lGAfCd_u1j44-5hHvDru-133" value="" style="rounded=0;whiteSpace=wrap;html=1;strokeColor=#003366;container=0;fontColor=#33FF33;" vertex="1" parent="1">
          <mxGeometry x="527.5" y="557.5" width="20" height="20" as="geometry" />
        </mxCell>
        <mxCell id="lGAfCd_u1j44-5hHvDru-134" value="" style="rounded=0;whiteSpace=wrap;html=1;strokeColor=#003366;container=0;fontColor=#33FF33;" vertex="1" parent="1">
          <mxGeometry x="552.5" y="557.5" width="20" height="20" as="geometry" />
        </mxCell>
        <mxCell id="lGAfCd_u1j44-5hHvDru-135" value="" style="rounded=0;whiteSpace=wrap;html=1;strokeColor=#003366;container=0;fontColor=#33FF33;" vertex="1" parent="1">
          <mxGeometry x="577.5" y="557.5" width="20" height="20" as="geometry" />
        </mxCell>
        <mxCell id="lGAfCd_u1j44-5hHvDru-136" value="" style="rounded=0;whiteSpace=wrap;html=1;strokeColor=#003366;fontStyle=1;container=0;fontColor=#33FF33;" vertex="1" parent="1">
          <mxGeometry x="602.5" y="557.5" width="20" height="20" as="geometry" />
        </mxCell>
        <mxCell id="lGAfCd_u1j44-5hHvDru-137" value="" style="rounded=0;whiteSpace=wrap;html=1;strokeColor=#003366;container=0;fontColor=#33FF33;" vertex="1" parent="1">
          <mxGeometry x="627.5" y="557.5" width="20" height="20" as="geometry" />
        </mxCell>
        <mxCell id="lGAfCd_u1j44-5hHvDru-138" value="" style="rounded=0;whiteSpace=wrap;html=1;strokeColor=#003366;container=0;fontColor=#33FF33;" vertex="1" parent="1">
          <mxGeometry x="677.5" y="557.5" width="20" height="20" as="geometry" />
        </mxCell>
        <mxCell id="lGAfCd_u1j44-5hHvDru-139" value="" style="rounded=0;whiteSpace=wrap;html=1;strokeColor=#003366;container=0;fontColor=#33FF33;" vertex="1" parent="1">
          <mxGeometry x="652.5" y="557.5" width="20" height="20" as="geometry" />
        </mxCell>
        <mxCell id="lGAfCd_u1j44-5hHvDru-140" value="" style="rounded=0;whiteSpace=wrap;html=1;strokeColor=#003366;container=0;fontColor=#33FF33;" vertex="1" parent="1">
          <mxGeometry x="502.5" y="582.5" width="20" height="20" as="geometry" />
        </mxCell>
        <mxCell id="lGAfCd_u1j44-5hHvDru-141" value="" style="rounded=0;whiteSpace=wrap;html=1;strokeColor=#003366;container=0;fontColor=#33FF33;" vertex="1" parent="1">
          <mxGeometry x="527.5" y="582.5" width="20" height="20" as="geometry" />
        </mxCell>
        <mxCell id="lGAfCd_u1j44-5hHvDru-142" value="" style="rounded=0;whiteSpace=wrap;html=1;strokeColor=#003366;container=0;fontColor=#33FF33;" vertex="1" parent="1">
          <mxGeometry x="552.5" y="582.5" width="20" height="20" as="geometry" />
        </mxCell>
        <mxCell id="lGAfCd_u1j44-5hHvDru-143" value="" style="rounded=0;whiteSpace=wrap;html=1;strokeColor=#003366;container=0;fontColor=#33FF33;" vertex="1" parent="1">
          <mxGeometry x="577.5" y="582.5" width="20" height="20" as="geometry" />
        </mxCell>
        <mxCell id="lGAfCd_u1j44-5hHvDru-144" value="" style="rounded=0;whiteSpace=wrap;html=1;strokeColor=#003366;fontStyle=1;container=0;fontColor=#33FF33;" vertex="1" parent="1">
          <mxGeometry x="602.5" y="582.5" width="20" height="20" as="geometry" />
        </mxCell>
        <mxCell id="lGAfCd_u1j44-5hHvDru-145" value="" style="rounded=0;whiteSpace=wrap;html=1;strokeColor=#003366;container=0;fontColor=#33FF33;" vertex="1" parent="1">
          <mxGeometry x="627.5" y="582.5" width="20" height="20" as="geometry" />
        </mxCell>
        <mxCell id="lGAfCd_u1j44-5hHvDru-146" value="" style="rounded=0;whiteSpace=wrap;html=1;strokeColor=#003366;container=0;fontColor=#33FF33;" vertex="1" parent="1">
          <mxGeometry x="677.5" y="582.5" width="20" height="20" as="geometry" />
        </mxCell>
        <mxCell id="lGAfCd_u1j44-5hHvDru-147" value="" style="rounded=0;whiteSpace=wrap;html=1;strokeColor=#003366;container=0;fontColor=#33FF33;" vertex="1" parent="1">
          <mxGeometry x="652.5" y="582.5" width="20" height="20" as="geometry" />
        </mxCell>
        <mxCell id="lGAfCd_u1j44-5hHvDru-148" value="" style="rounded=0;whiteSpace=wrap;html=1;strokeColor=#003366;container=0;fontColor=#33FF33;" vertex="1" parent="1">
          <mxGeometry x="502.5" y="607.5" width="20" height="20" as="geometry" />
        </mxCell>
        <mxCell id="lGAfCd_u1j44-5hHvDru-149" value="" style="rounded=0;whiteSpace=wrap;html=1;strokeColor=#003366;container=0;fontColor=#33FF33;" vertex="1" parent="1">
          <mxGeometry x="527.5" y="607.5" width="20" height="20" as="geometry" />
        </mxCell>
        <mxCell id="lGAfCd_u1j44-5hHvDru-150" value="" style="rounded=0;whiteSpace=wrap;html=1;strokeColor=#003366;container=0;fontColor=#33FF33;" vertex="1" parent="1">
          <mxGeometry x="552.5" y="607.5" width="20" height="20" as="geometry" />
        </mxCell>
        <mxCell id="lGAfCd_u1j44-5hHvDru-151" value="" style="rounded=0;whiteSpace=wrap;html=1;strokeColor=#003366;container=0;fontColor=#33FF33;" vertex="1" parent="1">
          <mxGeometry x="577.5" y="607.5" width="20" height="20" as="geometry" />
        </mxCell>
        <mxCell id="lGAfCd_u1j44-5hHvDru-152" value="" style="rounded=0;whiteSpace=wrap;html=1;strokeColor=#003366;fontStyle=1;container=0;fontColor=#33FF33;" vertex="1" parent="1">
          <mxGeometry x="602.5" y="607.5" width="20" height="20" as="geometry" />
        </mxCell>
        <mxCell id="lGAfCd_u1j44-5hHvDru-153" value="" style="rounded=0;whiteSpace=wrap;html=1;strokeColor=#003366;container=0;fontColor=#33FF33;" vertex="1" parent="1">
          <mxGeometry x="627.5" y="607.5" width="20" height="20" as="geometry" />
        </mxCell>
        <mxCell id="lGAfCd_u1j44-5hHvDru-154" value="" style="rounded=0;whiteSpace=wrap;html=1;strokeColor=#003366;container=0;fontColor=#33FF33;" vertex="1" parent="1">
          <mxGeometry x="677.5" y="607.5" width="20" height="20" as="geometry" />
        </mxCell>
        <mxCell id="lGAfCd_u1j44-5hHvDru-155" value="" style="rounded=0;whiteSpace=wrap;html=1;strokeColor=#003366;container=0;fontColor=#33FF33;" vertex="1" parent="1">
          <mxGeometry x="652.5" y="607.5" width="20" height="20" as="geometry" />
        </mxCell>
        <mxCell id="lGAfCd_u1j44-5hHvDru-156" value="" style="rounded=0;whiteSpace=wrap;html=1;strokeColor=#003366;container=0;fontColor=#33FF33;" vertex="1" parent="1">
          <mxGeometry x="502.5" y="632.5" width="20" height="20" as="geometry" />
        </mxCell>
        <mxCell id="lGAfCd_u1j44-5hHvDru-157" value="" style="rounded=0;whiteSpace=wrap;html=1;strokeColor=#003366;container=0;fontColor=#33FF33;" vertex="1" parent="1">
          <mxGeometry x="527.5" y="632.5" width="20" height="20" as="geometry" />
        </mxCell>
        <mxCell id="lGAfCd_u1j44-5hHvDru-158" value="" style="rounded=0;whiteSpace=wrap;html=1;strokeColor=#003366;container=0;fontColor=#33FF33;" vertex="1" parent="1">
          <mxGeometry x="552.5" y="632.5" width="20" height="20" as="geometry" />
        </mxCell>
        <mxCell id="lGAfCd_u1j44-5hHvDru-159" value="" style="rounded=0;whiteSpace=wrap;html=1;strokeColor=#003366;container=0;fontColor=#33FF33;" vertex="1" parent="1">
          <mxGeometry x="577.5" y="632.5" width="20" height="20" as="geometry" />
        </mxCell>
        <mxCell id="lGAfCd_u1j44-5hHvDru-160" value="" style="rounded=0;whiteSpace=wrap;html=1;strokeColor=#003366;fontStyle=1;container=0;fontColor=#33FF33;" vertex="1" parent="1">
          <mxGeometry x="602.5" y="632.5" width="20" height="20" as="geometry" />
        </mxCell>
        <mxCell id="lGAfCd_u1j44-5hHvDru-161" value="" style="rounded=0;whiteSpace=wrap;html=1;strokeColor=#003366;container=0;fontColor=#33FF33;" vertex="1" parent="1">
          <mxGeometry x="627.5" y="632.5" width="20" height="20" as="geometry" />
        </mxCell>
        <mxCell id="lGAfCd_u1j44-5hHvDru-162" value="" style="rounded=0;whiteSpace=wrap;html=1;strokeColor=#003366;container=0;fontColor=#33FF33;" vertex="1" parent="1">
          <mxGeometry x="677.5" y="632.5" width="20" height="20" as="geometry" />
        </mxCell>
        <mxCell id="lGAfCd_u1j44-5hHvDru-163" value="" style="rounded=0;whiteSpace=wrap;html=1;strokeColor=#003366;container=0;fontColor=#33FF33;" vertex="1" parent="1">
          <mxGeometry x="652.5" y="632.5" width="20" height="20" as="geometry" />
        </mxCell>
        <mxCell id="lGAfCd_u1j44-5hHvDru-164" value="" style="rounded=0;whiteSpace=wrap;html=1;strokeColor=#003366;container=0;fontColor=#33FF33;" vertex="1" parent="1">
          <mxGeometry x="502.5" y="657.5" width="20" height="20" as="geometry" />
        </mxCell>
        <mxCell id="lGAfCd_u1j44-5hHvDru-165" value="" style="rounded=0;whiteSpace=wrap;html=1;strokeColor=#003366;container=0;fontColor=#33FF33;" vertex="1" parent="1">
          <mxGeometry x="527.5" y="657.5" width="20" height="20" as="geometry" />
        </mxCell>
        <mxCell id="lGAfCd_u1j44-5hHvDru-166" value="" style="rounded=0;whiteSpace=wrap;html=1;strokeColor=#003366;container=0;fontColor=#33FF33;" vertex="1" parent="1">
          <mxGeometry x="552.5" y="657.5" width="20" height="20" as="geometry" />
        </mxCell>
        <mxCell id="lGAfCd_u1j44-5hHvDru-167" value="" style="rounded=0;whiteSpace=wrap;html=1;strokeColor=#003366;container=0;fontColor=#33FF33;" vertex="1" parent="1">
          <mxGeometry x="577.5" y="657.5" width="20" height="20" as="geometry" />
        </mxCell>
        <mxCell id="lGAfCd_u1j44-5hHvDru-168" value="" style="rounded=0;whiteSpace=wrap;html=1;strokeColor=#003366;fontStyle=1;container=0;fontColor=#33FF33;" vertex="1" parent="1">
          <mxGeometry x="602.5" y="657.5" width="20" height="20" as="geometry" />
        </mxCell>
        <mxCell id="lGAfCd_u1j44-5hHvDru-169" value="" style="rounded=0;whiteSpace=wrap;html=1;strokeColor=#003366;container=0;fontColor=#33FF33;" vertex="1" parent="1">
          <mxGeometry x="627.5" y="657.5" width="20" height="20" as="geometry" />
        </mxCell>
        <mxCell id="lGAfCd_u1j44-5hHvDru-170" value="" style="rounded=0;whiteSpace=wrap;html=1;strokeColor=#003366;container=0;fontColor=#33FF33;" vertex="1" parent="1">
          <mxGeometry x="677.5" y="657.5" width="20" height="20" as="geometry" />
        </mxCell>
        <mxCell id="lGAfCd_u1j44-5hHvDru-171" value="" style="rounded=0;whiteSpace=wrap;html=1;strokeColor=#003366;container=0;fontColor=#33FF33;" vertex="1" parent="1">
          <mxGeometry x="652.5" y="657.5" width="20" height="20" as="geometry" />
        </mxCell>
        <mxCell id="lGAfCd_u1j44-5hHvDru-175" value="row" style="text;html=1;strokeColor=none;fillColor=none;align=center;verticalAlign=middle;whiteSpace=wrap;rounded=0;labelBorderColor=none;fontSize=14;fontColor=#000000;" vertex="1" parent="1">
          <mxGeometry x="350" y="440" width="60" height="20" as="geometry" />
        </mxCell>
        <mxCell id="lGAfCd_u1j44-5hHvDru-176" value="" style="rounded=0;whiteSpace=wrap;html=1;labelBorderColor=#0066CC;strokeColor=#3399FF;fontSize=14;fontColor=#000000;" vertex="1" parent="1">
          <mxGeometry x="330" y="462.5" width="60" height="20" as="geometry" />
        </mxCell>
        <mxCell id="lGAfCd_u1j44-5hHvDru-177" value="row" style="text;html=1;strokeColor=none;fillColor=none;align=center;verticalAlign=middle;whiteSpace=wrap;rounded=0;labelBorderColor=none;fontSize=14;fontColor=#000000;" vertex="1" parent="1">
          <mxGeometry x="340" y="462.5" width="40" height="20" as="geometry" />
        </mxCell>
        <mxCell id="lGAfCd_u1j44-5hHvDru-179" value="" style="rounded=0;whiteSpace=wrap;html=1;labelBorderColor=#0066CC;strokeColor=#3399FF;fontSize=14;fontColor=#000000;" vertex="1" parent="1">
          <mxGeometry x="393" y="462.5" width="40" height="20" as="geometry" />
        </mxCell>
        <mxCell id="lGAfCd_u1j44-5hHvDru-181" value="row" style="text;html=1;strokeColor=none;fillColor=none;align=center;verticalAlign=middle;whiteSpace=wrap;rounded=0;labelBorderColor=none;fontSize=14;fontColor=#000000;" vertex="1" parent="1">
          <mxGeometry x="394.5" y="460.5" width="37" height="20" as="geometry" />
        </mxCell>
        <mxCell id="lGAfCd_u1j44-5hHvDru-182" value="" style="rounded=0;whiteSpace=wrap;html=1;labelBorderColor=#0066CC;strokeColor=#3399FF;fontSize=14;fontColor=#000000;" vertex="1" parent="1">
          <mxGeometry x="330" y="486.5" width="80" height="20" as="geometry" />
        </mxCell>
        <mxCell id="lGAfCd_u1j44-5hHvDru-184" value="row" style="text;html=1;strokeColor=none;fillColor=none;align=center;verticalAlign=middle;whiteSpace=wrap;rounded=0;labelBorderColor=none;fontSize=14;fontColor=#000000;" vertex="1" parent="1">
          <mxGeometry x="347" y="486.5" width="43" height="20" as="geometry" />
        </mxCell>
        <mxCell id="lGAfCd_u1j44-5hHvDru-185" value="extent" style="text;html=1;strokeColor=none;fillColor=none;align=center;verticalAlign=middle;whiteSpace=wrap;rounded=0;fontSize=14;" vertex="1" parent="1">
          <mxGeometry x="490" y="439" width="70" height="30" as="geometry" />
        </mxCell>
        <mxCell id="lGAfCd_u1j44-5hHvDru-186" value="page" style="text;html=1;strokeColor=none;fillColor=none;align=center;verticalAlign=middle;whiteSpace=wrap;rounded=0;fontSize=14;" vertex="1" parent="1">
          <mxGeometry x="320" y="400" width="70" height="30" as="geometry" />
        </mxCell>
        <mxCell id="lGAfCd_u1j44-5hHvDru-187" value="" style="rounded=0;whiteSpace=wrap;html=1;strokeColor=#003366;" vertex="1" parent="1">
          <mxGeometry x="150" y="459" width="130" height="140" as="geometry" />
        </mxCell>
        <mxCell id="lGAfCd_u1j44-5hHvDru-188" value="row" style="text;html=1;strokeColor=none;fillColor=none;align=center;verticalAlign=middle;whiteSpace=wrap;rounded=0;fontSize=14;" vertex="1" parent="1">
          <mxGeometry x="150" y="429" width="70" height="30" as="geometry" />
        </mxCell>
        <mxCell id="lGAfCd_u1j44-5hHvDru-189" value="" style="rounded=0;whiteSpace=wrap;html=1;strokeColor=#003366;" vertex="1" parent="1">
          <mxGeometry x="140" y="245" width="130" height="140" as="geometry" />
        </mxCell>
        <mxCell id="lGAfCd_u1j44-5hHvDru-190" value="tablespace" style="text;html=1;strokeColor=none;fillColor=none;align=center;verticalAlign=middle;whiteSpace=wrap;rounded=0;fontSize=14;" vertex="1" parent="1">
          <mxGeometry x="140" y="215" width="80" height="30" as="geometry" />
        </mxCell>
      </root>
    </mxGraphModel>
  </diagram>
</mxfile>
